STARTFONT 2.1
FONT -xos4-Terminusicons2-Medium-R-Normal--12-120-72-72-C-60-ISO8859-1
SIZE 12 72 72
FONTBOUNDINGBOX 10 12 -1 -2
STARTPROPERTIES 24
FAMILY_NAME "Terminusicons2"
FOUNDRY "xos4"
SETWIDTH_NAME "Normal"
ADD_STYLE_NAME ""
COPYRIGHT "Copyright (C) 2011 Dimitar Toshkov Zhekov"
NOTICE "Licensed under the SIL Open Font License, Version 1.1"
WEIGHT_NAME "Medium"
SLANT "R"
PIXEL_SIZE 12
POINT_SIZE 120
RESOLUTION_X 72
RESOLUTION_Y 72
SPACING "C"
AVERAGE_WIDTH 60
CHARSET_REGISTRY "ISO8859"
CHARSET_ENCODING "1"
MIN_SPACE 6
WEIGHT 10
X_HEIGHT 10
QUAD_WIDTH 6
_GBDFED_INFO "Edited with gbdfed 1.5."
DEFAULT_CHAR 46
FONT_DESCENT 2
FONT_ASCENT 10
ENDPROPERTIES
CHARS 251
STARTCHAR uni25AE
ENCODING 0
SWIDTH 500 0
DWIDTH 6 0
BBX 10 12 -1 -2
BITMAP
0000
0000
7C00
7C00
7C00
7C00
7C00
7C00
7C00
7C00
0000
0000
ENDCHAR
STARTCHAR blackdiamond
ENCODING 1
SWIDTH 500 0
DWIDTH 6 0
BBX 10 12 -1 -2
BITMAP
0000
0000
0000
1000
3800
7C00
3800
1000
0000
0000
0000
0000
ENDCHAR
STARTCHAR shade
ENCODING 2
SWIDTH 500 0
DWIDTH 6 0
BBX 10 12 -1 -2
BITMAP
5400
2A00
5400
2A00
5400
2A00
5400
2A00
5400
2A00
5400
2A00
ENDCHAR
STARTCHAR uni2409
ENCODING 3
SWIDTH 500 0
DWIDTH 6 0
BBX 10 12 -1 -2
BITMAP
4800
4800
7800
4800
4800
0000
3E00
0800
0800
0800
0800
0000
ENDCHAR
STARTCHAR uni240C
ENCODING 4
SWIDTH 500 0
DWIDTH 6 0
BBX 10 12 -1 -2
BITMAP
7800
4000
7000
4000
4000
0000
1E00
1000
1C00
1000
1000
0000
ENDCHAR
STARTCHAR uni240D
ENCODING 5
SWIDTH 500 0
DWIDTH 6 0
BBX 10 12 -1 -2
BITMAP
3000
4800
4000
4800
3000
0000
1C00
1200
1C00
1400
1200
0000
ENDCHAR
STARTCHAR uni240A
ENCODING 6
SWIDTH 500 0
DWIDTH 6 0
BBX 10 12 -1 -2
BITMAP
4000
4000
4000
4000
7800
0000
1E00
1000
1C00
1000
1000
0000
ENDCHAR
STARTCHAR degree
ENCODING 7
SWIDTH 500 0
DWIDTH 6 0
BBX 10 12 -1 -2
BITMAP
0000
1000
2800
1000
0000
0000
0000
0000
0000
0000
0000
0000
ENDCHAR
STARTCHAR plusminus
ENCODING 8
SWIDTH 500 0
DWIDTH 6 0
BBX 10 12 -1 -2
BITMAP
0000
0000
0000
1000
1000
7C00
1000
1000
0000
7C00
0000
0000
ENDCHAR
STARTCHAR uni2424
ENCODING 9
SWIDTH 500 0
DWIDTH 6 0
BBX 10 12 -1 -2
BITMAP
4800
6800
5800
4800
4800
0000
1000
1000
1000
1000
1E00
0000
ENDCHAR
STARTCHAR uni240B
ENCODING 10
SWIDTH 500 0
DWIDTH 6 0
BBX 10 12 -1 -2
BITMAP
4400
4400
4400
2800
1000
0000
3E00
0800
0800
0800
0800
0000
ENDCHAR
STARTCHAR SF040000
ENCODING 11
SWIDTH 500 0
DWIDTH 6 0
BBX 10 12 -1 -2
BITMAP
1000
1000
1000
1000
1000
7000
0000
0000
0000
0000
0000
0000
ENDCHAR
STARTCHAR SF030000
ENCODING 12
SWIDTH 500 0
DWIDTH 6 0
BBX 10 12 -1 -2
BITMAP
0000
0000
0000
0000
0000
7000
1000
1000
1000
1000
1000
1000
ENDCHAR
STARTCHAR SF010000
ENCODING 13
SWIDTH 500 0
DWIDTH 6 0
BBX 10 12 -1 -2
BITMAP
0000
0000
0000
0000
0000
1E00
1000
1000
1000
1000
1000
1000
ENDCHAR
STARTCHAR SF020000
ENCODING 14
SWIDTH 500 0
DWIDTH 6 0
BBX 10 12 -1 -2
BITMAP
1000
1000
1000
1000
1000
1E00
0000
0000
0000
0000
0000
0000
ENDCHAR
STARTCHAR SF050000
ENCODING 15
SWIDTH 500 0
DWIDTH 6 0
BBX 10 12 -1 -2
BITMAP
1000
1000
1000
1000
1000
7E00
1000
1000
1000
1000
1000
1000
ENDCHAR
STARTCHAR uni23BA
ENCODING 16
SWIDTH 500 0
DWIDTH 6 0
BBX 10 12 -1 -2
BITMAP
7E00
0000
0000
0000
0000
0000
0000
0000
0000
0000
0000
0000
ENDCHAR
STARTCHAR uni23BB
ENCODING 17
SWIDTH 500 0
DWIDTH 6 0
BBX 10 12 -1 -2
BITMAP
0000
0000
0000
7E00
0000
0000
0000
0000
0000
0000
0000
0000
ENDCHAR
STARTCHAR SF100000
ENCODING 18
SWIDTH 500 0
DWIDTH 6 0
BBX 10 12 -1 -2
BITMAP
0000
0000
0000
0000
0000
7E00
0000
0000
0000
0000
0000
0000
ENDCHAR
STARTCHAR uni23BC
ENCODING 19
SWIDTH 500 0
DWIDTH 6 0
BBX 10 12 -1 -2
BITMAP
0000
0000
0000
0000
0000
0000
0000
0000
7E00
0000
0000
0000
ENDCHAR
STARTCHAR uni23BD
ENCODING 20
SWIDTH 500 0
DWIDTH 6 0
BBX 10 12 -1 -2
BITMAP
0000
0000
0000
0000
0000
0000
0000
0000
0000
0000
0000
7E00
ENDCHAR
STARTCHAR SF080000
ENCODING 21
SWIDTH 500 0
DWIDTH 6 0
BBX 10 12 -1 -2
BITMAP
1000
1000
1000
1000
1000
1E00
1000
1000
1000
1000
1000
1000
ENDCHAR
STARTCHAR SF090000
ENCODING 22
SWIDTH 500 0
DWIDTH 6 0
BBX 10 12 -1 -2
BITMAP
1000
1000
1000
1000
1000
7000
1000
1000
1000
1000
1000
1000
ENDCHAR
STARTCHAR SF070000
ENCODING 23
SWIDTH 500 0
DWIDTH 6 0
BBX 10 12 -1 -2
BITMAP
1000
1000
1000
1000
1000
7E00
0000
0000
0000
0000
0000
0000
ENDCHAR
STARTCHAR SF060000
ENCODING 24
SWIDTH 500 0
DWIDTH 6 0
BBX 10 12 -1 -2
BITMAP
0000
0000
0000
0000
0000
7E00
1000
1000
1000
1000
1000
1000
ENDCHAR
STARTCHAR SF110000
ENCODING 25
SWIDTH 500 0
DWIDTH 6 0
BBX 10 12 -1 -2
BITMAP
1000
1000
1000
1000
1000
1000
1000
1000
1000
1000
1000
1000
ENDCHAR
STARTCHAR lessequal
ENCODING 26
SWIDTH 500 0
DWIDTH 6 0
BBX 10 12 -1 -2
BITMAP
0000
0800
1000
2000
4000
2000
1000
0800
0000
7C00
0000
0000
ENDCHAR
STARTCHAR greaterequal
ENCODING 27
SWIDTH 500 0
DWIDTH 6 0
BBX 10 12 -1 -2
BITMAP
0000
2000
1000
0800
0400
0800
1000
2000
0000
7C00
0000
0000
ENDCHAR
STARTCHAR pi
ENCODING 28
SWIDTH 500 0
DWIDTH 6 0
BBX 10 12 -1 -2
BITMAP
0000
0000
0000
0000
7C00
4400
4400
4400
4400
4400
0000
0000
ENDCHAR
STARTCHAR notequal
ENCODING 29
SWIDTH 500 0
DWIDTH 6 0
BBX 10 12 -1 -2
BITMAP
0000
0000
0000
0400
7C00
1000
2000
7C00
4000
0000
0000
0000
ENDCHAR
STARTCHAR sterling
ENCODING 30
SWIDTH 500 0
DWIDTH 6 0
BBX 10 12 -1 -2
BITMAP
0000
0000
1800
2400
2000
7800
2000
2000
2400
7C00
0000
0000
ENDCHAR
STARTCHAR periodcentered
ENCODING 31
SWIDTH 500 0
DWIDTH 6 0
BBX 10 12 -1 -2
BITMAP
0000
0000
0000
0000
0000
1000
1000
0000
0000
0000
0000
0000
ENDCHAR
STARTCHAR space
ENCODING 32
SWIDTH 500 0
DWIDTH 6 0
BBX 10 12 -1 -2
BITMAP
0000
0000
0000
0000
0000
0000
0000
0000
0000
0000
0000
0000
ENDCHAR
STARTCHAR exclam
ENCODING 33
SWIDTH 500 0
DWIDTH 6 0
BBX 10 12 -1 -2
BITMAP
0000
0000
1000
1000
1000
1000
1000
0000
1000
1000
0000
0000
ENDCHAR
STARTCHAR quotedbl
ENCODING 34
SWIDTH 500 0
DWIDTH 6 0
BBX 10 12 -1 -2
BITMAP
0000
2800
2800
2800
0000
0000
0000
0000
0000
0000
0000
0000
ENDCHAR
STARTCHAR numbersign
ENCODING 35
SWIDTH 500 0
DWIDTH 6 0
BBX 10 12 -1 -2
BITMAP
0000
0000
2800
2800
7C00
2800
2800
7C00
2800
2800
0000
0000
ENDCHAR
STARTCHAR dollar
ENCODING 36
SWIDTH 500 0
DWIDTH 6 0
BBX 10 12 -1 -2
BITMAP
0000
0000
1000
3800
5400
5000
3800
1400
5400
3800
1000
0000
ENDCHAR
STARTCHAR percent
ENCODING 37
SWIDTH 500 0
DWIDTH 6 0
BBX 10 12 -1 -2
BITMAP
0000
0000
2400
5400
2800
0800
1000
1400
2A00
2400
0000
0000
ENDCHAR
STARTCHAR ampersand
ENCODING 38
SWIDTH 500 0
DWIDTH 6 0
BBX 10 12 -1 -2
BITMAP
0000
0000
1000
2800
2800
1000
3400
4800
4800
3400
0000
0000
ENDCHAR
STARTCHAR quotesingle
ENCODING 39
SWIDTH 500 0
DWIDTH 6 0
BBX 10 12 -1 -2
BITMAP
0000
1000
1000
1000
0000
0000
0000
0000
0000
0000
0000
0000
ENDCHAR
STARTCHAR parenleft
ENCODING 40
SWIDTH 500 0
DWIDTH 6 0
BBX 10 12 -1 -2
BITMAP
0000
0000
0800
1000
2000
2000
2000
2000
1000
0800
0000
0000
ENDCHAR
STARTCHAR parenright
ENCODING 41
SWIDTH 500 0
DWIDTH 6 0
BBX 10 12 -1 -2
BITMAP
0000
0000
2000
1000
0800
0800
0800
0800
1000
2000
0000
0000
ENDCHAR
STARTCHAR asterisk
ENCODING 42
SWIDTH 500 0
DWIDTH 6 0
BBX 10 12 -1 -2
BITMAP
0000
0000
0000
0000
2800
1000
7C00
1000
2800
0000
0000
0000
ENDCHAR
STARTCHAR plus
ENCODING 43
SWIDTH 500 0
DWIDTH 6 0
BBX 10 12 -1 -2
BITMAP
0000
0000
0000
0000
1000
1000
7C00
1000
1000
0000
0000
0000
ENDCHAR
STARTCHAR comma
ENCODING 44
SWIDTH 500 0
DWIDTH 6 0
BBX 10 12 -1 -2
BITMAP
0000
0000
0000
0000
0000
0000
0000
0000
1000
1000
2000
0000
ENDCHAR
STARTCHAR hyphen
ENCODING 45
SWIDTH 500 0
DWIDTH 6 0
BBX 10 12 -1 -2
BITMAP
0000
0000
0000
0000
0000
0000
7C00
0000
0000
0000
0000
0000
ENDCHAR
STARTCHAR period
ENCODING 46
SWIDTH 500 0
DWIDTH 6 0
BBX 10 12 -1 -2
BITMAP
0000
0000
0000
0000
0000
0000
0000
0000
1000
1000
0000
0000
ENDCHAR
STARTCHAR slash
ENCODING 47
SWIDTH 500 0
DWIDTH 6 0
BBX 10 12 -1 -2
BITMAP
0000
0000
0400
0400
0800
0800
1000
1000
2000
2000
0000
0000
ENDCHAR
STARTCHAR zero
ENCODING 48
SWIDTH 500 0
DWIDTH 6 0
BBX 10 12 -1 -2
BITMAP
0000
0000
3800
4400
4C00
5400
6400
4400
4400
3800
0000
0000
ENDCHAR
STARTCHAR one
ENCODING 49
SWIDTH 500 0
DWIDTH 6 0
BBX 10 12 -1 -2
BITMAP
0000
0000
1000
3000
1000
1000
1000
1000
1000
3800
0000
0000
ENDCHAR
STARTCHAR two
ENCODING 50
SWIDTH 500 0
DWIDTH 6 0
BBX 10 12 -1 -2
BITMAP
0000
0000
3800
4400
4400
0800
1000
2000
4000
7C00
0000
0000
ENDCHAR
STARTCHAR three
ENCODING 51
SWIDTH 500 0
DWIDTH 6 0
BBX 10 12 -1 -2
BITMAP
0000
0000
3800
4400
0400
1800
0400
0400
4400
3800
0000
0000
ENDCHAR
STARTCHAR four
ENCODING 52
SWIDTH 500 0
DWIDTH 6 0
BBX 10 12 -1 -2
BITMAP
0000
0000
0400
0C00
1400
2400
4400
7C00
0400
0400
0000
0000
ENDCHAR
STARTCHAR five
ENCODING 53
SWIDTH 500 0
DWIDTH 6 0
BBX 10 12 -1 -2
BITMAP
0000
0000
7C00
4000
4000
7800
0400
0400
4400
3800
0000
0000
ENDCHAR
STARTCHAR six
ENCODING 54
SWIDTH 500 0
DWIDTH 6 0
BBX 10 12 -1 -2
BITMAP
0000
0000
3800
4000
4000
7800
4400
4400
4400
3800
0000
0000
ENDCHAR
STARTCHAR seven
ENCODING 55
SWIDTH 500 0
DWIDTH 6 0
BBX 10 12 -1 -2
BITMAP
0000
0000
7C00
0400
0400
0800
0800
1000
1000
1000
0000
0000
ENDCHAR
STARTCHAR eight
ENCODING 56
SWIDTH 500 0
DWIDTH 6 0
BBX 10 12 -1 -2
BITMAP
0000
0000
3800
4400
4400
3800
4400
4400
4400
3800
0000
0000
ENDCHAR
STARTCHAR nine
ENCODING 57
SWIDTH 500 0
DWIDTH 6 0
BBX 10 12 -1 -2
BITMAP
0000
0000
3800
4400
4400
4400
3C00
0400
0400
3800
0000
0000
ENDCHAR
STARTCHAR colon
ENCODING 58
SWIDTH 500 0
DWIDTH 6 0
BBX 10 12 -1 -2
BITMAP
0000
0000
0000
0000
1000
1000
0000
0000
1000
1000
0000
0000
ENDCHAR
STARTCHAR semicolon
ENCODING 59
SWIDTH 500 0
DWIDTH 6 0
BBX 10 12 -1 -2
BITMAP
0000
0000
0000
0000
1000
1000
0000
0000
1000
1000
2000
0000
ENDCHAR
STARTCHAR less
ENCODING 60
SWIDTH 500 0
DWIDTH 6 0
BBX 10 12 -1 -2
BITMAP
0000
0000
0000
0400
0800
1000
2000
1000
0800
0400
0000
0000
ENDCHAR
STARTCHAR equal
ENCODING 61
SWIDTH 500 0
DWIDTH 6 0
BBX 10 12 -1 -2
BITMAP
0000
0000
0000
0000
7C00
0000
0000
7C00
0000
0000
0000
0000
ENDCHAR
STARTCHAR greater
ENCODING 62
SWIDTH 500 0
DWIDTH 6 0
BBX 10 12 -1 -2
BITMAP
0000
0000
0000
2000
1000
0800
0400
0800
1000
2000
0000
0000
ENDCHAR
STARTCHAR question
ENCODING 63
SWIDTH 500 0
DWIDTH 6 0
BBX 10 12 -1 -2
BITMAP
0000
0000
3800
4400
4400
0800
1000
0000
1000
1000
0000
0000
ENDCHAR
STARTCHAR at
ENCODING 64
SWIDTH 500 0
DWIDTH 6 0
BBX 10 12 -1 -2
BITMAP
0000
0000
3800
4400
4C00
5400
5400
4C00
4000
3C00
0000
0000
ENDCHAR
STARTCHAR A
ENCODING 65
SWIDTH 500 0
DWIDTH 6 0
BBX 10 12 -1 -2
BITMAP
0000
0000
3800
4400
4400
4400
7C00
4400
4400
4400
0000
0000
ENDCHAR
STARTCHAR B
ENCODING 66
SWIDTH 500 0
DWIDTH 6 0
BBX 10 12 -1 -2
BITMAP
0000
0000
7800
4400
4400
7800
4400
4400
4400
7800
0000
0000
ENDCHAR
STARTCHAR C
ENCODING 67
SWIDTH 500 0
DWIDTH 6 0
BBX 10 12 -1 -2
BITMAP
0000
0000
3800
4400
4000
4000
4000
4000
4400
3800
0000
0000
ENDCHAR
STARTCHAR D
ENCODING 68
SWIDTH 500 0
DWIDTH 6 0
BBX 10 12 -1 -2
BITMAP
0000
0000
7000
4800
4400
4400
4400
4400
4800
7000
0000
0000
ENDCHAR
STARTCHAR E
ENCODING 69
SWIDTH 500 0
DWIDTH 6 0
BBX 10 12 -1 -2
BITMAP
0000
0000
7C00
4000
4000
7800
4000
4000
4000
7C00
0000
0000
ENDCHAR
STARTCHAR F
ENCODING 70
SWIDTH 500 0
DWIDTH 6 0
BBX 10 12 -1 -2
BITMAP
0000
0000
7C00
4000
4000
7800
4000
4000
4000
4000
0000
0000
ENDCHAR
STARTCHAR G
ENCODING 71
SWIDTH 500 0
DWIDTH 6 0
BBX 10 12 -1 -2
BITMAP
0000
0000
3800
4400
4000
4000
5C00
4400
4400
3800
0000
0000
ENDCHAR
STARTCHAR H
ENCODING 72
SWIDTH 500 0
DWIDTH 6 0
BBX 10 12 -1 -2
BITMAP
0000
0000
4400
4400
4400
7C00
4400
4400
4400
4400
0000
0000
ENDCHAR
STARTCHAR I
ENCODING 73
SWIDTH 500 0
DWIDTH 6 0
BBX 10 12 -1 -2
BITMAP
0000
0000
3800
1000
1000
1000
1000
1000
1000
3800
0000
0000
ENDCHAR
STARTCHAR J
ENCODING 74
SWIDTH 500 0
DWIDTH 6 0
BBX 10 12 -1 -2
BITMAP
0000
0000
1C00
0800
0800
0800
0800
4800
4800
3000
0000
0000
ENDCHAR
STARTCHAR K
ENCODING 75
SWIDTH 500 0
DWIDTH 6 0
BBX 10 12 -1 -2
BITMAP
0000
0000
4400
4800
5000
6000
6000
5000
4800
4400
0000
0000
ENDCHAR
STARTCHAR L
ENCODING 76
SWIDTH 500 0
DWIDTH 6 0
BBX 10 12 -1 -2
BITMAP
0000
0000
4000
4000
4000
4000
4000
4000
4000
7C00
0000
0000
ENDCHAR
STARTCHAR M
ENCODING 77
SWIDTH 500 0
DWIDTH 6 0
BBX 10 12 -1 -2
BITMAP
0000
0000
4400
6C00
5400
5400
4400
4400
4400
4400
0000
0000
ENDCHAR
STARTCHAR N
ENCODING 78
SWIDTH 500 0
DWIDTH 6 0
BBX 10 12 -1 -2
BITMAP
0000
0000
4400
4400
6400
5400
4C00
4400
4400
4400
0000
0000
ENDCHAR
STARTCHAR O
ENCODING 79
SWIDTH 500 0
DWIDTH 6 0
BBX 10 12 -1 -2
BITMAP
0000
0000
3800
4400
4400
4400
4400
4400
4400
3800
0000
0000
ENDCHAR
STARTCHAR P
ENCODING 80
SWIDTH 500 0
DWIDTH 6 0
BBX 10 12 -1 -2
BITMAP
0000
0000
7800
4400
4400
4400
7800
4000
4000
4000
0000
0000
ENDCHAR
STARTCHAR Q
ENCODING 81
SWIDTH 500 0
DWIDTH 6 0
BBX 10 12 -1 -2
BITMAP
0000
0000
3800
4400
4400
4400
4400
4400
5400
3800
0400
0000
ENDCHAR
STARTCHAR R
ENCODING 82
SWIDTH 500 0
DWIDTH 6 0
BBX 10 12 -1 -2
BITMAP
0000
0000
7800
4400
4400
4400
7800
5000
4800
4400
0000
0000
ENDCHAR
STARTCHAR S
ENCODING 83
SWIDTH 500 0
DWIDTH 6 0
BBX 10 12 -1 -2
BITMAP
0000
0000
3800
4400
4000
3800
0400
0400
4400
3800
0000
0000
ENDCHAR
STARTCHAR T
ENCODING 84
SWIDTH 500 0
DWIDTH 6 0
BBX 10 12 -1 -2
BITMAP
0000
0000
7C00
1000
1000
1000
1000
1000
1000
1000
0000
0000
ENDCHAR
STARTCHAR U
ENCODING 85
SWIDTH 500 0
DWIDTH 6 0
BBX 10 12 -1 -2
BITMAP
0000
0000
4400
4400
4400
4400
4400
4400
4400
3800
0000
0000
ENDCHAR
STARTCHAR V
ENCODING 86
SWIDTH 500 0
DWIDTH 6 0
BBX 10 12 -1 -2
BITMAP
0000
0000
4400
4400
4400
2800
2800
2800
1000
1000
0000
0000
ENDCHAR
STARTCHAR W
ENCODING 87
SWIDTH 500 0
DWIDTH 6 0
BBX 10 12 -1 -2
BITMAP
0000
0000
4400
4400
4400
4400
5400
5400
6C00
4400
0000
0000
ENDCHAR
STARTCHAR X
ENCODING 88
SWIDTH 500 0
DWIDTH 6 0
BBX 10 12 -1 -2
BITMAP
0000
0000
4400
4400
2800
1000
1000
2800
4400
4400
0000
0000
ENDCHAR
STARTCHAR Y
ENCODING 89
SWIDTH 500 0
DWIDTH 6 0
BBX 10 12 -1 -2
BITMAP
0000
0000
4400
4400
2800
2800
1000
1000
1000
1000
0000
0000
ENDCHAR
STARTCHAR Z
ENCODING 90
SWIDTH 500 0
DWIDTH 6 0
BBX 10 12 -1 -2
BITMAP
0000
0000
7C00
0400
0800
1000
2000
4000
4000
7C00
0000
0000
ENDCHAR
STARTCHAR bracketleft
ENCODING 91
SWIDTH 500 0
DWIDTH 6 0
BBX 10 12 -1 -2
BITMAP
0000
0000
3800
2000
2000
2000
2000
2000
2000
3800
0000
0000
ENDCHAR
STARTCHAR backslash
ENCODING 92
SWIDTH 500 0
DWIDTH 6 0
BBX 10 12 -1 -2
BITMAP
0000
0000
2000
2000
1000
1000
0800
0800
0400
0400
0000
0000
ENDCHAR
STARTCHAR bracketright
ENCODING 93
SWIDTH 500 0
DWIDTH 6 0
BBX 10 12 -1 -2
BITMAP
0000
0000
3800
0800
0800
0800
0800
0800
0800
3800
0000
0000
ENDCHAR
STARTCHAR asciicircum
ENCODING 94
SWIDTH 500 0
DWIDTH 6 0
BBX 10 12 -1 -2
BITMAP
0000
1000
2800
4400
0000
0000
0000
0000
0000
0000
0000
0000
ENDCHAR
STARTCHAR underscore
ENCODING 95
SWIDTH 500 0
DWIDTH 6 0
BBX 10 12 -1 -2
BITMAP
0000
0000
0000
0000
0000
0000
0000
0000
0000
0000
7C00
0000
ENDCHAR
STARTCHAR grave
ENCODING 96
SWIDTH 500 0
DWIDTH 6 0
BBX 10 12 -1 -2
BITMAP
2000
1000
0000
0000
0000
0000
0000
0000
0000
0000
0000
0000
ENDCHAR
STARTCHAR a
ENCODING 97
SWIDTH 500 0
DWIDTH 6 0
BBX 10 12 -1 -2
BITMAP
0000
0000
0000
0000
3800
0400
3C00
4400
4400
3C00
0000
0000
ENDCHAR
STARTCHAR b
ENCODING 98
SWIDTH 500 0
DWIDTH 6 0
BBX 10 12 -1 -2
BITMAP
0000
0000
4000
4000
7800
4400
4400
4400
4400
7800
0000
0000
ENDCHAR
STARTCHAR c
ENCODING 99
SWIDTH 500 0
DWIDTH 6 0
BBX 10 12 -1 -2
BITMAP
0000
0000
0000
0000
3800
4400
4000
4000
4400
3800
0000
0000
ENDCHAR
STARTCHAR d
ENCODING 100
SWIDTH 500 0
DWIDTH 6 0
BBX 10 12 -1 -2
BITMAP
0000
0000
0400
0400
3C00
4400
4400
4400
4400
3C00
0000
0000
ENDCHAR
STARTCHAR e
ENCODING 101
SWIDTH 500 0
DWIDTH 6 0
BBX 10 12 -1 -2
BITMAP
0000
0000
0000
0000
3800
4400
7C00
4000
4400
3800
0000
0000
ENDCHAR
STARTCHAR f
ENCODING 102
SWIDTH 500 0
DWIDTH 6 0
BBX 10 12 -1 -2
BITMAP
0000
0000
0C00
1000
3800
1000
1000
1000
1000
1000
0000
0000
ENDCHAR
STARTCHAR g
ENCODING 103
SWIDTH 500 0
DWIDTH 6 0
BBX 10 12 -1 -2
BITMAP
0000
0000
0000
0000
3C00
4400
4400
4400
4400
3C00
0400
3800
ENDCHAR
STARTCHAR h
ENCODING 104
SWIDTH 500 0
DWIDTH 6 0
BBX 10 12 -1 -2
BITMAP
0000
0000
4000
4000
7800
4400
4400
4400
4400
4400
0000
0000
ENDCHAR
STARTCHAR i
ENCODING 105
SWIDTH 500 0
DWIDTH 6 0
BBX 10 12 -1 -2
BITMAP
0000
1000
1000
0000
3000
1000
1000
1000
1000
3800
0000
0000
ENDCHAR
STARTCHAR j
ENCODING 106
SWIDTH 500 0
DWIDTH 6 0
BBX 10 12 -1 -2
BITMAP
0000
0400
0400
0000
0C00
0400
0400
0400
0400
0400
2400
1800
ENDCHAR
STARTCHAR k
ENCODING 107
SWIDTH 500 0
DWIDTH 6 0
BBX 10 12 -1 -2
BITMAP
0000
0000
2000
2000
2400
2800
3000
3000
2800
2400
0000
0000
ENDCHAR
STARTCHAR l
ENCODING 108
SWIDTH 500 0
DWIDTH 6 0
BBX 10 12 -1 -2
BITMAP
0000
0000
3000
1000
1000
1000
1000
1000
1000
3800
0000
0000
ENDCHAR
STARTCHAR m
ENCODING 109
SWIDTH 500 0
DWIDTH 6 0
BBX 10 12 -1 -2
BITMAP
0000
0000
0000
0000
7800
5400
5400
5400
5400
5400
0000
0000
ENDCHAR
STARTCHAR n
ENCODING 110
SWIDTH 500 0
DWIDTH 6 0
BBX 10 12 -1 -2
BITMAP
0000
0000
0000
0000
7800
4400
4400
4400
4400
4400
0000
0000
ENDCHAR
STARTCHAR o
ENCODING 111
SWIDTH 500 0
DWIDTH 6 0
BBX 10 12 -1 -2
BITMAP
0000
0000
0000
0000
3800
4400
4400
4400
4400
3800
0000
0000
ENDCHAR
STARTCHAR p
ENCODING 112
SWIDTH 500 0
DWIDTH 6 0
BBX 10 12 -1 -2
BITMAP
0000
0000
0000
0000
7800
4400
4400
4400
4400
7800
4000
4000
ENDCHAR
STARTCHAR q
ENCODING 113
SWIDTH 500 0
DWIDTH 6 0
BBX 10 12 -1 -2
BITMAP
0000
0000
0000
0000
3C00
4400
4400
4400
4400
3C00
0400
0400
ENDCHAR
STARTCHAR r
ENCODING 114
SWIDTH 500 0
DWIDTH 6 0
BBX 10 12 -1 -2
BITMAP
0000
0000
0000
0000
5C00
6000
4000
4000
4000
4000
0000
0000
ENDCHAR
STARTCHAR s
ENCODING 115
SWIDTH 500 0
DWIDTH 6 0
BBX 10 12 -1 -2
BITMAP
0000
0000
0000
0000
3C00
4000
3800
0400
0400
7800
0000
0000
ENDCHAR
STARTCHAR t
ENCODING 116
SWIDTH 500 0
DWIDTH 6 0
BBX 10 12 -1 -2
BITMAP
0000
0000
1000
1000
3800
1000
1000
1000
1000
0C00
0000
0000
ENDCHAR
STARTCHAR u
ENCODING 117
SWIDTH 500 0
DWIDTH 6 0
BBX 10 12 -1 -2
BITMAP
0000
0000
0000
0000
4400
4400
4400
4400
4400
3C00
0000
0000
ENDCHAR
STARTCHAR v
ENCODING 118
SWIDTH 500 0
DWIDTH 6 0
BBX 10 12 -1 -2
BITMAP
0000
0000
0000
0000
4400
4400
2800
2800
1000
1000
0000
0000
ENDCHAR
STARTCHAR w
ENCODING 119
SWIDTH 500 0
DWIDTH 6 0
BBX 10 12 -1 -2
BITMAP
0000
0000
0000
0000
4400
4400
5400
5400
5400
3800
0000
0000
ENDCHAR
STARTCHAR x
ENCODING 120
SWIDTH 500 0
DWIDTH 6 0
BBX 10 12 -1 -2
BITMAP
0000
0000
0000
0000
4400
2800
1000
1000
2800
4400
0000
0000
ENDCHAR
STARTCHAR y
ENCODING 121
SWIDTH 500 0
DWIDTH 6 0
BBX 10 12 -1 -2
BITMAP
0000
0000
0000
0000
4400
4400
4400
4400
4400
3C00
0400
3800
ENDCHAR
STARTCHAR z
ENCODING 122
SWIDTH 500 0
DWIDTH 6 0
BBX 10 12 -1 -2
BITMAP
0000
0000
0000
0000
7C00
0800
1000
2000
4000
7C00
0000
0000
ENDCHAR
STARTCHAR braceleft
ENCODING 123
SWIDTH 500 0
DWIDTH 6 0
BBX 10 12 -1 -2
BITMAP
0000
0000
0C00
1000
1000
2000
1000
1000
1000
0C00
0000
0000
ENDCHAR
STARTCHAR bar
ENCODING 124
SWIDTH 500 0
DWIDTH 6 0
BBX 10 12 -1 -2
BITMAP
0000
0000
1000
1000
1000
1000
1000
1000
1000
1000
0000
0000
ENDCHAR
STARTCHAR braceright
ENCODING 125
SWIDTH 500 0
DWIDTH 6 0
BBX 10 12 -1 -2
BITMAP
0000
0000
3000
0800
0800
0400
0800
0800
0800
3000
0000
0000
ENDCHAR
STARTCHAR asciitilde
ENCODING 126
SWIDTH 500 0
DWIDTH 6 0
BBX 10 12 -1 -2
BITMAP
0000
2400
5400
4800
0000
0000
0000
0000
0000
0000
0000
0000
ENDCHAR
STARTCHAR house
ENCODING 127
SWIDTH 500 0
DWIDTH 6 0
BBX 10 12 -1 -2
BITMAP
0000
0000
0000
0000
1000
2800
4400
4400
4400
7C00
0000
0000
ENDCHAR
STARTCHAR Euro
ENCODING 128
SWIDTH 500 0
DWIDTH 6 0
BBX 10 12 -1 -2
BITMAP
0000
0000
0000
1C00
2200
7800
2000
7800
2200
1C00
0000
0000
ENDCHAR
STARTCHAR quotesinglbase
ENCODING 130
SWIDTH 500 0
DWIDTH 6 0
BBX 10 12 -1 -2
BITMAP
0000
0000
0000
0000
0000
0000
0000
0000
1000
1000
2000
0000
ENDCHAR
STARTCHAR florin
ENCODING 131
SWIDTH 500 0
DWIDTH 6 0
BBX 10 12 -1 -2
BITMAP
0000
0000
0800
1400
1000
3800
1000
1000
1000
1000
5000
2000
ENDCHAR
STARTCHAR quotedblbase
ENCODING 132
SWIDTH 500 0
DWIDTH 6 0
BBX 10 12 -1 -2
BITMAP
0000
0000
0000
0000
0000
0000
0000
0000
2800
2800
5000
0000
ENDCHAR
STARTCHAR ellipsis
ENCODING 133
SWIDTH 500 0
DWIDTH 6 0
BBX 10 12 -1 -2
BITMAP
0000
0000
0000
0000
0000
0000
0000
0000
5400
5400
0000
0000
ENDCHAR
STARTCHAR dagger
ENCODING 134
SWIDTH 500 0
DWIDTH 6 0
BBX 10 12 -1 -2
BITMAP
0000
0000
1000
3800
1000
1000
1000
1000
1000
1000
0000
0000
ENDCHAR
STARTCHAR daggerdbl
ENCODING 135
SWIDTH 500 0
DWIDTH 6 0
BBX 10 12 -1 -2
BITMAP
0000
0000
1000
3800
1000
1000
1000
1000
3800
1000
0000
0000
ENDCHAR
STARTCHAR circumflex
ENCODING 136
SWIDTH 500 0
DWIDTH 6 0
BBX 10 12 -1 -2
BITMAP
1000
2800
0000
0000
0000
0000
0000
0000
0000
0000
0000
0000
ENDCHAR
STARTCHAR perthousand
ENCODING 137
SWIDTH 500 0
DWIDTH 6 0
BBX 10 12 -1 -2
BITMAP
0000
0000
2200
5400
2800
1000
2000
5400
2A00
1400
0000
0000
ENDCHAR
STARTCHAR Scaron
ENCODING 138
SWIDTH 500 0
DWIDTH 6 0
BBX 10 12 -1 -2
BITMAP
2800
1000
3800
4400
4000
3800
0400
0400
4400
3800
0000
0000
ENDCHAR
STARTCHAR guilsinglleft
ENCODING 139
SWIDTH 500 0
DWIDTH 6 0
BBX 10 12 -1 -2
BITMAP
0000
0000
0000
0400
0800
1000
2000
1000
0800
0400
0000
0000
ENDCHAR
STARTCHAR OE
ENCODING 140
SWIDTH 500 0
DWIDTH 6 0
BBX 10 12 -1 -2
BITMAP
0000
0000
3E00
4800
4800
4E00
4800
4800
4800
3E00
0000
0000
ENDCHAR
STARTCHAR Zcaron
ENCODING 142
SWIDTH 500 0
DWIDTH 6 0
BBX 10 12 -1 -2
BITMAP
2800
1000
7C00
0400
0800
1000
2000
4000
4000
7C00
0000
0000
ENDCHAR
STARTCHAR quoteleft
ENCODING 145
SWIDTH 500 0
DWIDTH 6 0
BBX 10 12 -1 -2
BITMAP
0000
0800
1000
1000
0000
0000
0000
0000
0000
0000
0000
0000
ENDCHAR
STARTCHAR quoteright
ENCODING 146
SWIDTH 500 0
DWIDTH 6 0
BBX 10 12 -1 -2
BITMAP
0000
1000
1000
2000
0000
0000
0000
0000
0000
0000
0000
0000
ENDCHAR
STARTCHAR quotedblleft
ENCODING 147
SWIDTH 500 0
DWIDTH 6 0
BBX 10 12 -1 -2
BITMAP
0000
1400
2800
2800
0000
0000
0000
0000
0000
0000
0000
0000
ENDCHAR
STARTCHAR quotedblright
ENCODING 148
SWIDTH 500 0
DWIDTH 6 0
BBX 10 12 -1 -2
BITMAP
0000
1400
1400
2800
0000
0000
0000
0000
0000
0000
0000
0000
ENDCHAR
STARTCHAR bullet
ENCODING 149
SWIDTH 500 0
DWIDTH 6 0
BBX 10 12 -1 -2
BITMAP
0000
0000
0000
0000
1800
3C00
3C00
1800
0000
0000
0000
0000
ENDCHAR
STARTCHAR endash
ENCODING 150
SWIDTH 500 0
DWIDTH 6 0
BBX 10 12 -1 -2
BITMAP
0000
0000
0000
0000
0000
0000
7C00
0000
0000
0000
0000
0000
ENDCHAR
STARTCHAR emdash
ENCODING 151
SWIDTH 500 0
DWIDTH 6 0
BBX 10 12 -1 -2
BITMAP
0000
0000
0000
0000
0000
0000
7C00
0000
0000
0000
0000
0000
ENDCHAR
STARTCHAR tilde
ENCODING 152
SWIDTH 500 0
DWIDTH 6 0
BBX 10 12 -1 -2
BITMAP
1400
2800
0000
0000
0000
0000
0000
0000
0000
0000
0000
0000
ENDCHAR
STARTCHAR trademark
ENCODING 153
SWIDTH 500 0
DWIDTH 6 0
BBX 10 12 -1 -2
BITMAP
0000
0000
7A00
2E00
2A00
2A00
0000
0000
0000
0000
0000
0000
ENDCHAR
STARTCHAR scaron
ENCODING 154
SWIDTH 500 0
DWIDTH 6 0
BBX 10 12 -1 -2
BITMAP
0000
0000
2800
1000
3C00
4000
3800
0400
0400
7800
0000
0000
ENDCHAR
STARTCHAR guilsinglright
ENCODING 155
SWIDTH 500 0
DWIDTH 6 0
BBX 10 12 -1 -2
BITMAP
0000
0000
0000
2000
1000
0800
0400
0800
1000
2000
0000
0000
ENDCHAR
STARTCHAR oe
ENCODING 156
SWIDTH 500 0
DWIDTH 6 0
BBX 10 12 -1 -2
BITMAP
0000
0000
0000
0000
3800
5400
5400
5800
5000
3C00
0000
0000
ENDCHAR
STARTCHAR zcaron
ENCODING 158
SWIDTH 500 0
DWIDTH 6 0
BBX 10 12 -1 -2
BITMAP
0000
0000
2800
1000
7C00
0800
1000
2000
4000
7C00
0000
0000
ENDCHAR
STARTCHAR Ydieresis
ENCODING 159
SWIDTH 500 0
DWIDTH 6 0
BBX 10 12 -1 -2
BITMAP
2800
2800
4400
4400
2800
2800
1000
1000
1000
1000
0000
0000
ENDCHAR
STARTCHAR nbspace
ENCODING 160
SWIDTH 500 0
DWIDTH 6 0
BBX 10 12 -1 -2
BITMAP
0000
0000
0000
0000
0000
0000
0000
0000
0000
0000
0000
0000
ENDCHAR
STARTCHAR exclamdown
ENCODING 161
SWIDTH 500 0
DWIDTH 6 0
BBX 10 12 -1 -2
BITMAP
0000
0000
1000
1000
0000
1000
1000
1000
1000
1000
0000
0000
ENDCHAR
STARTCHAR cent
ENCODING 162
SWIDTH 500 0
DWIDTH 6 0
BBX 10 12 -1 -2
BITMAP
0000
0000
0000
1000
3800
5400
5000
5000
5400
3800
1000
0000
ENDCHAR
STARTCHAR sterling
ENCODING 163
SWIDTH 500 0
DWIDTH 6 0
BBX 10 12 -1 -2
BITMAP
0000
0000
1800
2400
2000
7800
2000
2000
2400
7C00
0000
0000
ENDCHAR
STARTCHAR currency
ENCODING 164
SWIDTH 500 0
DWIDTH 6 0
BBX 10 12 -1 -2
BITMAP
0000
0000
0000
2400
1800
2400
2400
1800
2400
0000
0000
0000
ENDCHAR
STARTCHAR yen
ENCODING 165
SWIDTH 500 0
DWIDTH 6 0
BBX 10 12 -1 -2
BITMAP
0000
0000
4400
4400
2800
1000
3800
1000
3800
1000
0000
0000
ENDCHAR
STARTCHAR brokenbar
ENCODING 166
SWIDTH 500 0
DWIDTH 6 0
BBX 10 12 -1 -2
BITMAP
0000
0000
1000
1000
1000
0000
0000
1000
1000
1000
0000
0000
ENDCHAR
STARTCHAR section
ENCODING 167
SWIDTH 500 0
DWIDTH 6 0
BBX 10 12 -1 -2
BITMAP
0000
1800
2400
1000
2800
2400
1400
0800
2400
1800
0000
0000
ENDCHAR
STARTCHAR dieresis
ENCODING 168
SWIDTH 500 0
DWIDTH 6 0
BBX 10 12 -1 -2
BITMAP
2800
2800
0000
0000
0000
0000
0000
0000
0000
0000
0000
0000
ENDCHAR
STARTCHAR copyright
ENCODING 169
SWIDTH 500 0
DWIDTH 6 0
BBX 10 12 -1 -2
BITMAP
0000
0000
3C00
4200
5A00
5200
5200
5A00
4200
3C00
0000
0000
ENDCHAR
STARTCHAR ordfeminine
ENCODING 170
SWIDTH 500 0
DWIDTH 6 0
BBX 10 12 -1 -2
BITMAP
1800
0400
1C00
2400
1C00
0000
3C00
0000
0000
0000
0000
0000
ENDCHAR
STARTCHAR guillemotleft
ENCODING 171
SWIDTH 500 0
DWIDTH 6 0
BBX 10 12 -1 -2
BITMAP
0000
0000
0000
0A00
1400
2800
5000
2800
1400
0A00
0000
0000
ENDCHAR
STARTCHAR logicalnot
ENCODING 172
SWIDTH 500 0
DWIDTH 6 0
BBX 10 12 -1 -2
BITMAP
0000
0000
0000
0000
7C00
0400
0400
0400
0000
0000
0000
0000
ENDCHAR
STARTCHAR softhyphen
ENCODING 173
SWIDTH 500 0
DWIDTH 6 0
BBX 10 12 -1 -2
BITMAP
0000
0000
0000
0000
0000
0000
3C00
0000
0000
0000
0000
0000
ENDCHAR
STARTCHAR registered
ENCODING 174
SWIDTH 500 0
DWIDTH 6 0
BBX 10 12 -1 -2
BITMAP
0000
0000
3C00
4200
5A00
5600
5A00
5600
4200
3C00
0000
0000
ENDCHAR
STARTCHAR macron
ENCODING 175
SWIDTH 500 0
DWIDTH 6 0
BBX 10 12 -1 -2
BITMAP
3800
0000
0000
0000
0000
0000
0000
0000
0000
0000
0000
0000
ENDCHAR
STARTCHAR degree
ENCODING 176
SWIDTH 500 0
DWIDTH 6 0
BBX 10 12 -1 -2
BITMAP
0000
1000
2800
1000
0000
0000
0000
0000
0000
0000
0000
0000
ENDCHAR
STARTCHAR plusminus
ENCODING 177
SWIDTH 500 0
DWIDTH 6 0
BBX 10 12 -1 -2
BITMAP
0000
0000
0000
1000
1000
7C00
1000
1000
0000
7C00
0000
0000
ENDCHAR
STARTCHAR twosuperior
ENCODING 178
SWIDTH 500 0
DWIDTH 6 0
BBX 10 12 -1 -2
BITMAP
0000
1800
2400
0800
1000
3C00
0000
0000
0000
0000
0000
0000
ENDCHAR
STARTCHAR threesuperior
ENCODING 179
SWIDTH 500 0
DWIDTH 6 0
BBX 10 12 -1 -2
BITMAP
0000
3800
0400
1800
0400
3800
0000
0000
0000
0000
0000
0000
ENDCHAR
STARTCHAR acute
ENCODING 180
SWIDTH 500 0
DWIDTH 6 0
BBX 10 12 -1 -2
BITMAP
0800
1000
0000
0000
0000
0000
0000
0000
0000
0000
0000
0000
ENDCHAR
STARTCHAR mu
ENCODING 181
SWIDTH 500 0
DWIDTH 6 0
BBX 10 12 -1 -2
BITMAP
0000
0000
0000
0000
4400
4400
4400
4400
4C00
7400
4000
4000
ENDCHAR
STARTCHAR paragraph
ENCODING 182
SWIDTH 500 0
DWIDTH 6 0
BBX 10 12 -1 -2
BITMAP
0000
0000
3C00
5400
5400
5400
3400
1400
1400
1400
0000
0000
ENDCHAR
STARTCHAR periodcentered
ENCODING 183
SWIDTH 500 0
DWIDTH 6 0
BBX 10 12 -1 -2
BITMAP
0000
0000
0000
0000
0000
1000
1000
0000
0000
0000
0000
0000
ENDCHAR
STARTCHAR cedilla
ENCODING 184
SWIDTH 500 0
DWIDTH 6 0
BBX 10 12 -1 -2
BITMAP
0000
0000
0000
0000
0000
0000
0000
0000
0000
1000
1000
2000
ENDCHAR
STARTCHAR onesuperior
ENCODING 185
SWIDTH 500 0
DWIDTH 6 0
BBX 10 12 -1 -2
BITMAP
0000
1000
3000
1000
1000
0000
0000
0000
0000
0000
0000
0000
ENDCHAR
STARTCHAR ordmasculine
ENCODING 186
SWIDTH 500 0
DWIDTH 6 0
BBX 10 12 -1 -2
BITMAP
1800
2400
2400
2400
1800
0000
3C00
0000
0000
0000
0000
0000
ENDCHAR
STARTCHAR guillemotright
ENCODING 187
SWIDTH 500 0
DWIDTH 6 0
BBX 10 12 -1 -2
BITMAP
0000
0000
0000
5000
2800
1400
0A00
1400
2800
5000
0000
0000
ENDCHAR
STARTCHAR onequarter
ENCODING 188
SWIDTH 500 0
DWIDTH 6 0
BBX 10 12 -1 -2
BITMAP
2000
6000
2000
2400
0800
1000
2400
4C00
1400
3C00
0400
0400
ENDCHAR
STARTCHAR onehalf
ENCODING 189
SWIDTH 500 0
DWIDTH 6 0
BBX 10 12 -1 -2
BITMAP
2000
6000
2200
2400
0800
1000
2000
4C00
1200
0400
0800
1E00
ENDCHAR
STARTCHAR threequarters
ENCODING 190
SWIDTH 500 0
DWIDTH 6 0
BBX 10 12 -1 -2
BITMAP
6000
1000
6000
1200
6400
0800
1200
2600
4A00
1E00
0200
0200
ENDCHAR
STARTCHAR questiondown
ENCODING 191
SWIDTH 500 0
DWIDTH 6 0
BBX 10 12 -1 -2
BITMAP
0000
0000
1000
1000
0000
1000
2000
4400
4400
3800
0000
0000
ENDCHAR
STARTCHAR char340
ENCODING 192
SWIDTH 500 0
DWIDTH 6 0
BBX 10 12 -1 -2
BITMAP
0000
0000
1E00
3F00
7F80
7380
7380
7F80
3F00
1E00
0000
0000
ENDCHAR
STARTCHAR char256
ENCODING 193
SWIDTH 500 0
DWIDTH 6 0
BBX 10 12 -1 -2
BITMAP
0000
0000
3000
7600
6F00
2F00
7600
6F00
1F80
1F80
0000
0000
ENDCHAR
STARTCHAR char256
ENCODING 194
SWIDTH 500 0
DWIDTH 6 0
BBX 10 12 -1 -2
BITMAP
0000
0000
7F80
7F80
4080
4080
4080
4080
4080
7F80
0000
0000
ENDCHAR
STARTCHAR char256
ENCODING 195
SWIDTH 500 0
DWIDTH 6 0
BBX 10 12 -1 -2
BITMAP
0000
0000
7F80
7F80
4080
5E80
4080
5E80
4080
7F80
0000
0000
ENDCHAR
STARTCHAR char256
ENCODING 196
SWIDTH 500 0
DWIDTH 6 0
BBX 10 12 -1 -2
BITMAP
0000
0000
7F80
7F80
4080
5280
4080
5E80
4080
7F80
0000
0000
ENDCHAR
STARTCHAR char252
ENCODING 197
SWIDTH 500 0
DWIDTH 6 0
BBX 10 12 -1 -2
BITMAP
0000
0000
7800
4E00
7A00
0200
0200
7A00
4E00
7800
0000
0000
ENDCHAR
STARTCHAR char304
ENCODING 198
SWIDTH 500 0
DWIDTH 6 0
BBX 10 12 -1 -2
BITMAP
0000
0000
0C00
1E00
3F00
7F80
3F00
3300
3300
3300
0000
0000
ENDCHAR
STARTCHAR char316
ENCODING 199
SWIDTH 500 0
DWIDTH 6 0
BBX 10 12 -1 -2
BITMAP
0000
0400
0400
0E00
0E00
1F00
1F00
3B80
3180
71C0
4040
0000
ENDCHAR
STARTCHAR AE
ENCODING 200
SWIDTH 500 0
DWIDTH 6 0
BBX 10 12 -1 -2
BITMAP
0000
0000
7F80
4080
4080
4080
4080
7F80
0C00
7F80
0000
0000
ENDCHAR
STARTCHAR char256
ENCODING 201
SWIDTH 500 0
DWIDTH 6 0
BBX 10 12 -1 -2
BITMAP
0000
0000
7B80
7B80
7800
0380
7B80
7800
7B80
7B80
0000
0000
ENDCHAR
STARTCHAR char256
ENCODING 202
SWIDTH 500 0
DWIDTH 6 0
BBX 10 12 -1 -2
BITMAP
0000
0000
7C00
7C00
7C00
7D80
7D80
0180
0F80
0F80
0000
0000
ENDCHAR
STARTCHAR char256
ENCODING 203
SWIDTH 500 0
DWIDTH 6 0
BBX 10 12 -1 -2
BITMAP
0000
0000
7F80
7F80
7F80
7F80
7F80
7F80
7F80
7F80
0000
0000
ENDCHAR
STARTCHAR char256
ENCODING 204
SWIDTH 500 0
DWIDTH 6 0
BBX 10 12 -1 -2
BITMAP
0000
0000
7780
7780
7780
7780
0000
6D80
6D80
6D80
0000
0000
ENDCHAR
STARTCHAR char256
ENCODING 205
SWIDTH 500 0
DWIDTH 6 0
BBX 10 12 -1 -2
BITMAP
0000
0000
6D80
6D80
0000
6D80
6D80
0000
6D80
6D80
0000
0000
ENDCHAR
STARTCHAR char144
ENCODING 206
SWIDTH 500 0
DWIDTH 6 0
BBX 10 12 -1 -2
BITMAP
0000
0000
1F80
1F80
1080
1080
1080
1080
7380
7380
0000
0000
ENDCHAR
STARTCHAR char319
ENCODING 207
SWIDTH 500 0
DWIDTH 6 0
BBX 10 12 -1 -2
BITMAP
0000
0000
6D80
4080
1E00
5E80
5E80
1E00
4080
6D80
0000
0000
ENDCHAR
STARTCHAR char308
ENCODING 208
SWIDTH 500 0
DWIDTH 6 0
BBX 10 12 -1 -2
BITMAP
0000
0000
1C00
1C00
1C00
1C00
7F00
3E00
1C00
0800
0000
0000
ENDCHAR
STARTCHAR char308
ENCODING 209
SWIDTH 500 0
DWIDTH 6 0
BBX 10 12 -1 -2
BITMAP
0000
0000
0800
1C00
3E00
7F00
1C00
1C00
1C00
1C00
0000
0000
ENDCHAR
STARTCHAR char256
ENCODING 210
SWIDTH 500 0
DWIDTH 6 0
BBX 10 12 -1 -2
BITMAP
0000
0000
3F00
7F80
7F80
7F80
7F80
3F00
0600
0C00
0000
0000
ENDCHAR
STARTCHAR char305
ENCODING 211
SWIDTH 500 0
DWIDTH 6 0
BBX 10 12 -1 -2
BITMAP
0000
0000
0000
7FC0
5F40
6EC0
75C0
6AC0
5F40
7FC0
0000
0000
ENDCHAR
STARTCHAR char278
ENCODING 212
SWIDTH 500 0
DWIDTH 6 0
BBX 10 12 -1 -2
BITMAP
0000
0000
0800
1900
7880
7A80
7A80
7880
1900
0800
0000
0000
ENDCHAR
STARTCHAR char340
ENCODING 213
SWIDTH 500 0
DWIDTH 6 0
BBX 10 12 -1 -2
BITMAP
0000
0000
1E00
3700
7780
7780
7080
7F80
3F00
1E00
0000
0000
ENDCHAR
STARTCHAR char293
ENCODING 214
SWIDTH 500 0
DWIDTH 6 0
BBX 10 12 -1 -2
BITMAP
0000
0000
0000
0000
0000
3800
3800
3800
0000
0000
0000
0000
ENDCHAR
STARTCHAR multiply
ENCODING 215
SWIDTH 500 0
DWIDTH 6 0
BBX 10 12 -1 -2
BITMAP
0000
0000
0000
0000
4400
2800
1000
2800
4400
0000
0000
0000
ENDCHAR
STARTCHAR Oslash
ENCODING 216
SWIDTH 500 0
DWIDTH 6 0
BBX 10 12 -1 -2
BITMAP
0000
0000
3E00
4100
1C00
2200
0800
1400
0000
0800
0000
0000
ENDCHAR
STARTCHAR Ugrave
ENCODING 217
SWIDTH 500 0
DWIDTH 6 0
BBX 10 12 -1 -2
BITMAP
0000
0000
7F80
7F80
0C00
0C00
7F80
6D80
6180
7F80
0000
0000
ENDCHAR
STARTCHAR uni2B80
ENCODING 218
SWIDTH 500 0
DWIDTH 6 0
BBX 10 12 -1 -2
BITMAP
4000
6000
7000
7800
7C00
7E00
7E00
7C00
7800
7000
6000
4000
ENDCHAR
STARTCHAR uni2B81
ENCODING 219
SWIDTH 500 0
DWIDTH 6 0
BBX 10 12 -1 -2
BITMAP
4000
2000
1000
0800
0400
0200
0200
0400
0800
1000
2000
4000
ENDCHAR
STARTCHAR uni2B82
ENCODING 220
SWIDTH 500 0
DWIDTH 6 0
BBX 10 12 -1 -2
BITMAP
0200
0600
0E00
1E00
3E00
7E00
7E00
3E00
1E00
0E00
0600
0200
ENDCHAR
STARTCHAR uni2B83
ENCODING 221
SWIDTH 500 0
DWIDTH 6 0
BBX 10 12 -1 -2
BITMAP
0200
0400
0800
1000
2000
4000
4000
2000
1000
0800
0400
0200
ENDCHAR
STARTCHAR char319
ENCODING 222
SWIDTH 500 0
DWIDTH 6 0
BBX 10 12 -1 -2
BITMAP
0000
0000
5500
0000
7F00
7F00
7F00
7F00
0000
5500
0000
0000
ENDCHAR
STARTCHAR germandbls
ENCODING 223
SWIDTH 500 0
DWIDTH 6 0
BBX 10 12 -1 -2
BITMAP
7E00
7E00
7E00
7E00
7E00
7E00
7E00
7E00
7E00
7E00
7E00
7E00
ENDCHAR
STARTCHAR agrave
ENCODING 224
SWIDTH 500 0
DWIDTH 6 0
BBX 10 12 -1 -2
BITMAP
0000
0000
2000
1000
3800
0400
3C00
4400
4400
3C00
0000
0000
ENDCHAR
STARTCHAR aacute
ENCODING 225
SWIDTH 500 0
DWIDTH 6 0
BBX 10 12 -1 -2
BITMAP
0000
0000
0800
1000
3800
0400
3C00
4400
4400
3C00
0000
0000
ENDCHAR
STARTCHAR acircumflex
ENCODING 226
SWIDTH 500 0
DWIDTH 6 0
BBX 10 12 -1 -2
BITMAP
0000
0000
1000
2800
3800
0400
3C00
4400
4400
3C00
0000
0000
ENDCHAR
STARTCHAR atilde
ENCODING 227
SWIDTH 500 0
DWIDTH 6 0
BBX 10 12 -1 -2
BITMAP
0000
0000
1400
2800
3800
0400
3C00
4400
4400
3C00
0000
0000
ENDCHAR
STARTCHAR adieresis
ENCODING 228
SWIDTH 500 0
DWIDTH 6 0
BBX 10 12 -1 -2
BITMAP
0000
0000
2800
2800
3800
0400
3C00
4400
4400
3C00
0000
0000
ENDCHAR
STARTCHAR aring
ENCODING 229
SWIDTH 500 0
DWIDTH 6 0
BBX 10 12 -1 -2
BITMAP
0000
0000
1000
2800
3800
0400
3C00
4400
4400
3C00
0000
0000
ENDCHAR
STARTCHAR ae
ENCODING 230
SWIDTH 500 0
DWIDTH 6 0
BBX 10 12 -1 -2
BITMAP
0000
0000
0000
0000
3800
1400
3400
5800
5000
3C00
0000
0000
ENDCHAR
STARTCHAR ccedilla
ENCODING 231
SWIDTH 500 0
DWIDTH 6 0
BBX 10 12 -1 -2
BITMAP
0000
0000
0000
0000
3800
4400
4000
4000
4400
3800
1000
2000
ENDCHAR
STARTCHAR egrave
ENCODING 232
SWIDTH 500 0
DWIDTH 6 0
BBX 10 12 -1 -2
BITMAP
0000
0000
2000
1000
3800
4400
7C00
4000
4400
3800
0000
0000
ENDCHAR
STARTCHAR eacute
ENCODING 233
SWIDTH 500 0
DWIDTH 6 0
BBX 10 12 -1 -2
BITMAP
0000
0000
0800
1000
3800
4400
7C00
4000
4400
3800
0000
0000
ENDCHAR
STARTCHAR ecircumflex
ENCODING 234
SWIDTH 500 0
DWIDTH 6 0
BBX 10 12 -1 -2
BITMAP
0000
0000
1000
2800
3800
4400
7C00
4000
4400
3800
0000
0000
ENDCHAR
STARTCHAR edieresis
ENCODING 235
SWIDTH 500 0
DWIDTH 6 0
BBX 10 12 -1 -2
BITMAP
0000
0000
2800
2800
3800
4400
7C00
4000
4400
3800
0000
0000
ENDCHAR
STARTCHAR igrave
ENCODING 236
SWIDTH 500 0
DWIDTH 6 0
BBX 10 12 -1 -2
BITMAP
0000
0000
2000
1000
3000
1000
1000
1000
1000
3800
0000
0000
ENDCHAR
STARTCHAR iacute
ENCODING 237
SWIDTH 500 0
DWIDTH 6 0
BBX 10 12 -1 -2
BITMAP
0000
0000
0800
1000
3000
1000
1000
1000
1000
3800
0000
0000
ENDCHAR
STARTCHAR icircumflex
ENCODING 238
SWIDTH 500 0
DWIDTH 6 0
BBX 10 12 -1 -2
BITMAP
0000
0000
1000
2800
3000
1000
1000
1000
1000
3800
0000
0000
ENDCHAR
STARTCHAR idieresis
ENCODING 239
SWIDTH 500 0
DWIDTH 6 0
BBX 10 12 -1 -2
BITMAP
0000
0000
2800
2800
3000
1000
1000
1000
1000
3800
0000
0000
ENDCHAR
STARTCHAR eth
ENCODING 240
SWIDTH 500 0
DWIDTH 6 0
BBX 10 12 -1 -2
BITMAP
0000
5000
2000
5000
3800
4400
4400
4400
4400
3800
0000
0000
ENDCHAR
STARTCHAR ntilde
ENCODING 241
SWIDTH 500 0
DWIDTH 6 0
BBX 10 12 -1 -2
BITMAP
0000
0000
1400
2800
7800
4400
4400
4400
4400
4400
0000
0000
ENDCHAR
STARTCHAR ograve
ENCODING 242
SWIDTH 500 0
DWIDTH 6 0
BBX 10 12 -1 -2
BITMAP
0000
0000
2000
1000
3800
4400
4400
4400
4400
3800
0000
0000
ENDCHAR
STARTCHAR oacute
ENCODING 243
SWIDTH 500 0
DWIDTH 6 0
BBX 10 12 -1 -2
BITMAP
0000
0000
0800
1000
3800
4400
4400
4400
4400
3800
0000
0000
ENDCHAR
STARTCHAR ocircumflex
ENCODING 244
SWIDTH 500 0
DWIDTH 6 0
BBX 10 12 -1 -2
BITMAP
0000
0000
1000
2800
3800
4400
4400
4400
4400
3800
0000
0000
ENDCHAR
STARTCHAR otilde
ENCODING 245
SWIDTH 500 0
DWIDTH 6 0
BBX 10 12 -1 -2
BITMAP
0000
0000
1400
2800
3800
4400
4400
4400
4400
3800
0000
0000
ENDCHAR
STARTCHAR odieresis
ENCODING 246
SWIDTH 500 0
DWIDTH 6 0
BBX 10 12 -1 -2
BITMAP
0000
0000
2800
2800
3800
4400
4400
4400
4400
3800
0000
0000
ENDCHAR
STARTCHAR divide
ENCODING 247
SWIDTH 500 0
DWIDTH 6 0
BBX 10 12 -1 -2
BITMAP
0000
0000
0000
1000
1000
0000
7C00
0000
1000
1000
0000
0000
ENDCHAR
STARTCHAR oslash
ENCODING 248
SWIDTH 500 0
DWIDTH 6 0
BBX 10 12 -1 -2
BITMAP
0000
0000
0000
0000
1A00
2400
2C00
3400
2400
5800
0000
0000
ENDCHAR
STARTCHAR ugrave
ENCODING 249
SWIDTH 500 0
DWIDTH 6 0
BBX 10 12 -1 -2
BITMAP
0000
0000
2000
1000
4400
4400
4400
4400
4400
3C00
0000
0000
ENDCHAR
STARTCHAR uacute
ENCODING 250
SWIDTH 500 0
DWIDTH 6 0
BBX 10 12 -1 -2
BITMAP
0000
0000
0800
1000
4400
4400
4400
4400
4400
3C00
0000
0000
ENDCHAR
STARTCHAR ucircumflex
ENCODING 251
SWIDTH 500 0
DWIDTH 6 0
BBX 10 12 -1 -2
BITMAP
0000
0000
1000
2800
4400
4400
4400
4400
4400
3C00
0000
0000
ENDCHAR
STARTCHAR udieresis
ENCODING 252
SWIDTH 500 0
DWIDTH 6 0
BBX 10 12 -1 -2
BITMAP
0000
0000
2800
2800
4400
4400
4400
4400
4400
3C00
0000
0000
ENDCHAR
STARTCHAR yacute
ENCODING 253
SWIDTH 500 0
DWIDTH 6 0
BBX 10 12 -1 -2
BITMAP
0000
0000
0800
1000
4400
4400
4400
4400
4400
3C00
0400
3800
ENDCHAR
STARTCHAR thorn
ENCODING 254
SWIDTH 500 0
DWIDTH 6 0
BBX 10 12 -1 -2
BITMAP
0000
0000
4000
4000
7800
4400
4400
4400
4400
7800
4000
4000
ENDCHAR
STARTCHAR ydieresis
ENCODING 255
SWIDTH 500 0
DWIDTH 6 0
BBX 10 12 -1 -2
BITMAP
0000
0000
2800
2800
4400
4400
4400
4400
4400
3C00
0400
3800
ENDCHAR
ENDFONT
